<svg id="svg" xmlns="http://www.w3.org/2000/svg" xmlns:xlink="http://www.w3.org/1999/xlink" width="400" height="400" viewBox="0, 0, 400,400"><g id="svgg"><path id="path0" d="M180.078 0.509 C 43.142 15.232,-38.252 156.729,17.608 282.951 C 64.667 389.287,198.223 432.332,299.609 373.842 C 378.087 328.567,416.471 236.949,393.799 149.019 C 374.270 73.278,311.095 15.798,232.465 2.230 C 223.308 0.650,189.192 -0.471,180.078 0.509 M218.770 33.614 C 358.084 50.476,416.922 219.094,318.008 318.008 C 219.094 416.922,50.476 358.084,33.614 218.770 C 20.912 113.833,113.833 20.912,218.770 33.614 M132.813 116.435 C 94.335 119.323,87.534 122.252,87.534 135.938 C 87.534 148.646,95.657 153.206,114.807 151.247 C 184.214 144.149,243.072 149.834,287.891 167.966 C 296.936 171.625,298.421 171.978,302.510 171.440 C 313.542 169.988,320.070 157.803,315.043 148.047 C 309.011 136.338,267.047 123.329,216.410 117.470 C 204.094 116.045,147.369 115.343,132.813 116.435 M145.313 178.576 C 143.809 178.743,137.129 179.269,130.469 179.745 C 101.760 181.796,94.558 185.387,94.543 197.656 C 94.528 210.691,102.826 215.793,120.703 213.738 C 178.502 207.093,235.055 212.408,274.817 228.220 C 285.917 232.634,289.798 233.008,295.313 230.192 C 304.018 225.748,306.713 214.482,301.100 206.001 C 294.962 196.726,253.894 184.777,211.722 179.994 C 201.829 178.873,152.195 177.813,145.313 178.576 M146.875 239.071 C 106.419 240.846,98.389 244.047,98.455 258.373 C 98.512 270.795,106.633 275.661,124.053 273.712 C 173.908 268.133,223.132 272.945,258.024 286.811 C 267.061 290.402,271.412 290.701,276.582 288.086 C 288.632 281.991,288.276 264.884,275.971 258.699 C 247.416 244.346,197.974 236.829,146.875 239.071 " stroke="none" fill="#000000" fill-rule="evenodd"></path></g></svg>